<?xml version="1.0" encoding="UTF-8"?>
<svg id="juty-simple-logo" viewBox="0 0 101.815 28.281">
  <path
    d="M0,28.078v-3.303h4.874c5.116,0,7.655-1.57,7.655-4.712V0h4.35v20.184c0,5.276-3.948,7.894-11.802,7.894H0ZM34.979,28.078c-6.93,0-10.394-2.135-10.394-6.364v-13.415h4.271v13.456c0,2.014,2.014,3.059,5.962,3.059h7.655c3.987,0,5.962-1.045,5.962-3.059v-13.456h4.31v13.415c0,4.228-3.505,6.364-10.394,6.364h-7.372ZM61.446,3.505h-13.011V.202h29.005v3.303h-11.643v24.776h-4.351V3.505ZM83.886,28.078v-3.139h8.099c3.666,0,5.558-.968,5.558-2.86v-1.371h-13.979c-6.93,0-10.394-2.457-10.394-7.29v-5.117h4.269v5.319c0,2.698,1.894,3.986,5.681,3.986h14.422v-9.305h4.271v13.779c0,4.028-3.303,6-9.829,6h-8.099Z" />
</svg>