<?xml version="1.0" encoding="UTF-8"?>
<svg id="juty-full-logo" viewBox="0 0 108.674 52.281">
  <g id="c" data-name="Layer 2">
    <g>
      <path
        d="M0,30.078v-3.303h4.874c5.116,0,7.655-1.57,7.655-4.712V2h4.35v20.184c0,5.276-3.948,7.894-11.802,7.894H0ZM34.979,30.078c-6.93,0-10.394-2.135-10.394-6.364v-13.415h4.271v13.456c0,2.014,2.014,3.059,5.962,3.059h7.655c3.987,0,5.962-1.045,5.962-3.059v-13.456h4.31v13.415c0,4.228-3.505,6.364-10.394,6.364h-7.372ZM61.446,5.505h-13.011v-3.303h29.005v3.303h-11.643v24.776h-4.351V5.505ZM83.886,30.078v-3.139h8.099c3.666,0,5.558-.968,5.558-2.86v-1.371h-13.979c-6.93,0-10.394-2.457-10.394-7.29v-5.117h4.269v5.319c0,2.698,1.894,3.986,5.681,3.986h14.422v-9.305h4.271v13.779c0,4.028-3.303,6-9.829,6h-8.099Z"
        fill="#ed1c24" />
      <g>
        <polygon points="86.963 34.281 0 34.281 0 52.281 104.963 52.281 86.963 34.281" />
        <g>
          <g>
            <path
              d="M7.847,42.096c-1.003.09-1.836.135-2.497.135-.441,0-.765-.104-.972-.311s-.311-.531-.311-.972v-2.16c0-.473.107-.815.321-1.029.213-.214.557-.32,1.029-.32h2.43v.944h-2.16c-.27,0-.405.136-.405.405v2.16c0,.104.03.186.091.246.061.061.138.091.233.091.094,0,.198,0,.311-.003.112-.002.229-.006.351-.01.121-.005.244-.01.368-.014.124-.005.284-.014.479-.027.196-.014.44-.029.732-.047v.911Z"
              fill="#fff" />
            <path
              d="M13.99,40.881c0,.473-.107.815-.321,1.029s-.557.32-1.029.32h-1.688c-.473,0-.816-.106-1.029-.32-.214-.214-.321-.557-.321-1.029v-2.16c0-.473.107-.815.321-1.029.213-.214.557-.321,1.029-.321h1.688c.472,0,.815.107,1.029.321s.321.557.321,1.029v2.16ZM12.775,38.721c0-.271-.135-.405-.405-.405h-1.147c-.27,0-.405.135-.405.405v2.16c0,.27.135.404.405.404h1.147c.27,0,.405-.135.405-.404v-2.16Z"
              fill="#fff" />
            <path
              d="M20.132,42.163h-1.282l-1.62-2.835v2.835h-1.215v-4.725h1.283l1.62,2.835v-2.835h1.215v4.725Z"
              fill="#fff" />
            <path
              d="M22.15,41.185c1.233.067,2.068.101,2.504.101.104,0,.186-.03.246-.091.061-.061.091-.143.091-.246v-.607h-1.552c-.473,0-.816-.107-1.03-.321-.213-.213-.32-.557-.32-1.029v-.202c0-.473.107-.815.32-1.029.214-.214.557-.32,1.03-.32h2.369v.944h-2.1c-.27,0-.405.136-.405.405v.135c0,.271.135.405.405.405h1.215c.441,0,.765.104.972.311s.311.531.311.972v.338c0,.44-.104.765-.311.972s-.531.311-.972.311c-.229,0-.473-.005-.729-.014l-.621-.026c-.459-.022-.934-.055-1.424-.095v-.911Z"
              fill="#fff" />
            <path d="M30.123,42.163h-1.215v-3.78h-1.417v-.944h4.05v.944h-1.417v3.78Z" fill="#fff" />
            <path
              d="M33.362,37.439h2.835c.472,0,.815.106,1.029.32.213.214.32.557.32,1.029v.607c0,.374-.062.664-.186.871-.124.207-.32.344-.59.411l.844,1.485h-1.316l-.776-1.418h-.945v1.418h-1.215v-4.725ZM36.333,38.788c0-.27-.135-.405-.405-.405h-1.35v1.418h1.35c.27,0,.405-.135.405-.405v-.607Z"
              fill="#fff" />
            <path
              d="M42.609,37.439h1.215v3.442c0,.473-.107.815-.321,1.029s-.557.32-1.029.32h-1.553c-.472,0-.815-.106-1.029-.32s-.321-.557-.321-1.029v-3.442h1.215v3.442c0,.27.135.404.405.404h1.013c.27,0,.405-.135.405-.404v-3.442Z"
              fill="#fff" />
            <path
              d="M49.629,42.096c-1.003.09-1.836.135-2.497.135-.441,0-.765-.104-.972-.311s-.311-.531-.311-.972v-2.16c0-.473.107-.815.321-1.029.213-.214.557-.32,1.029-.32h2.43v.944h-2.16c-.27,0-.405.136-.405.405v2.16c0,.104.03.186.091.246.061.061.138.091.233.091.094,0,.198,0,.311-.003.112-.002.229-.006.351-.01.121-.005.244-.01.368-.014.124-.005.284-.014.479-.027.196-.014.44-.029.732-.047v.911Z"
              fill="#fff" />
            <path d="M53.815,42.163h-1.215v-3.78h-1.417v-.944h4.05v.944h-1.417v3.78Z" fill="#fff" />
            <path
              d="M59.282,42.163h-2.43v-.945h.607v-2.835h-.607v-.944h2.43v.944h-.607v2.835h.607v.945Z"
              fill="#fff" />
            <path
              d="M65.492,40.881c0,.473-.107.815-.321,1.029s-.557.32-1.029.32h-1.688c-.473,0-.816-.106-1.029-.32-.214-.214-.321-.557-.321-1.029v-2.16c0-.473.107-.815.321-1.029.213-.214.557-.321,1.029-.321h1.688c.472,0,.815.107,1.029.321s.321.557.321,1.029v2.16ZM64.277,38.721c0-.271-.135-.405-.405-.405h-1.147c-.27,0-.405.135-.405.405v2.16c0,.27.135.404.405.404h1.147c.27,0,.405-.135.405-.404v-2.16Z"
              fill="#fff" />
            <path
              d="M71.634,42.163h-1.282l-1.62-2.835v2.835h-1.215v-4.725h1.283l1.62,2.835v-2.835h1.215v4.725Z"
              fill="#fff" />
          </g>
          <g>
            <path
              d="M8.05,49.057c-1.021.09-1.944.135-2.768.135-.441,0-.765-.104-.972-.311-.207-.207-.311-.531-.311-.972,0-.342.085-.626.256-.851.135-.18.319-.302.554-.364-.203-.067-.366-.186-.49-.354-.124-.169-.186-.389-.186-.658v-.067c0-.409.104-.715.311-.915s.531-.3.972-.3h2.16v.944h-1.822c-.27,0-.405.136-.405.405v.202c0,.271.135.405.405.405h1.08l.101-.54h1.114v.54h.54v.945h-.54v1.755ZM5.552,48.246c.495,0,.922-.011,1.283-.033v-.911h-1.215c-.27,0-.405.135-.405.404v.203c0,.104.03.186.091.246.061.061.143.091.246.091Z"
              fill="#ed1c24" />
            <path
              d="M13.045,44.4c.508,0,.894.131,1.158.395.263.264.395.649.395,1.157v1.62c0,.509-.131.895-.395,1.158-.264.263-.649.395-1.158.395h-2.633v-4.725h2.633ZM13.382,45.951c0-.404-.203-.607-.607-.607h-1.147v2.835h1.147c.405,0,.607-.202.607-.607v-1.62Z"
              fill="#fff" />
            <path
              d="M20.369,49.124h-3.747v-4.725h3.747v.944h-2.531v.911h1.991v.945h-1.991v.979h2.531v.945Z"
              fill="#fff" />
            <path
              d="M24.25,47.706l1.147-3.307h1.316l-1.789,4.725h-1.35l-1.789-4.725h1.316l1.148,3.307Z"
              fill="#fff" />
            <path
              d="M32.147,49.124h-3.747v-4.725h3.747v.944h-2.531v.911h1.991v.945h-1.991v.979h2.531v.945Z"
              fill="#fff" />
            <path d="M35.252,48.179h2.464v.945h-3.679v-4.725h1.215v3.779Z" fill="#fff" />
            <path
              d="M43.791,47.842c0,.473-.107.815-.321,1.029s-.557.32-1.029.32h-1.688c-.473,0-.816-.106-1.029-.32-.214-.214-.321-.557-.321-1.029v-2.16c0-.473.107-.815.321-1.029.213-.214.557-.321,1.029-.321h1.688c.472,0,.815.107,1.029.321s.321.557.321,1.029v2.16ZM42.576,45.682c0-.271-.135-.405-.405-.405h-1.147c-.27,0-.405.135-.405.405v2.16c0,.27.135.404.405.404h1.147c.27,0,.405-.135.405-.404v-2.16Z"
              fill="#fff" />
            <path
              d="M45.815,44.4h2.835c.472,0,.815.106,1.029.32.213.214.32.557.32,1.029v.675c0,.473-.107.815-.32,1.029-.214.214-.557.321-1.029.321h-1.62v1.35h-1.215v-4.725ZM48.786,45.749c0-.27-.135-.405-.405-.405h-1.35v1.485h1.35c.27,0,.405-.135.405-.405v-.675Z"
              fill="#fff" />
            <path
              d="M56.008,46.491l-.945,1.688h-.945l-.945-1.688v2.633h-1.215v-4.725h1.283l1.35,2.497,1.35-2.497h1.282v4.725h-1.215v-2.633Z"
              fill="#fff" />
            <path
              d="M63.129,49.124h-3.747v-4.725h3.747v.944h-2.531v.911h1.991v.945h-1.991v.979h2.531v.945Z"
              fill="#fff" />
            <path
              d="M69.137,49.124h-1.282l-1.62-2.835v2.835h-1.215v-4.725h1.283l1.62,2.835v-2.835h1.215v4.725Z"
              fill="#fff" />
            <path d="M73.592,49.124h-1.215v-3.78h-1.417v-.944h4.05v.944h-1.417v3.78Z" fill="#fff" />
            <path d="M77.561,48.463h1.725v.661h-2.575v-3.308h.85v2.646Z" fill="#ed1c24" />
            <path d="M81.411,48.463h1.725v.661h-2.575v-3.308h.85v2.646Z" fill="#ed1c24" />
            <path
              d="M86.963,49.077c-.703.062-1.285.094-1.748.094-.309,0-.536-.072-.681-.217-.145-.146-.217-.372-.217-.681v-1.512c0-.331.075-.571.225-.721.149-.149.39-.225.72-.225h1.701v.661h-1.512c-.189,0-.284.095-.284.284v1.512c0,.072.021.13.064.173.042.042.097.063.163.063.066,0,.139,0,.218-.002.079-.002.161-.004.246-.008.085-.003.171-.006.257-.009.086-.004.199-.01.335-.02.137-.009.308-.021.513-.033v.639Z"
              fill="#ed1c24" />
          </g>
        </g>
      </g>
      <path
        d="M0,28.078v-3.303h4.874c5.116,0,7.655-1.57,7.655-4.712V0h4.35v20.184c0,5.276-3.948,7.894-11.802,7.894H0ZM34.979,28.078c-6.93,0-10.394-2.135-10.394-6.364v-13.415h4.271v13.456c0,2.014,2.014,3.059,5.962,3.059h7.655c3.987,0,5.962-1.045,5.962-3.059v-13.456h4.31v13.415c0,4.228-3.505,6.364-10.394,6.364h-7.372ZM61.446,3.505h-13.011V.202h29.005v3.303h-11.643v24.776h-4.351V3.505ZM83.886,28.078v-3.139h8.099c3.666,0,5.558-.968,5.558-2.86v-1.371h-13.979c-6.93,0-10.394-2.457-10.394-7.29v-5.117h4.269v5.319c0,2.698,1.894,3.986,5.681,3.986h14.422v-9.305h4.271v13.779c0,4.028-3.303,6-9.829,6h-8.099ZM104.792,10.747h-.63v-1.959h-.734v-.489h2.099v.489h-.734v1.959ZM108.044,9.383l-.489.875h-.49l-.49-.875v1.364h-.629v-2.448h.665l.699,1.294.7-1.294h.664v2.448h-.63v-1.364Z" />
    </g>
  </g>
</svg>